<svg xmlns="http://www.w3.org/2000/svg" viewBox="0 0 60 60">
  <defs>
    <linearGradient id="a" x1="30" y1="0" x2="30" y2="60" gradientUnits="userSpaceOnUse">
      <stop offset="0" stop-color="#8E8E93"/>
      <stop offset="1" stop-color="#636366"/>
    </linearGradient>
  </defs>
  <rect width="60" height="60" rx="13.5" fill="url(#a)"/>
  <path fill="#fff" d="M30 22a8 8 0 1 0 0 16 8 8 0 0 0 0-16zm-14.5 8c0-.8.1-1.6.3-2.3l-2.5-2c-.4-.3-.5-.9-.2-1.3l2.4-4.2c.3-.4.9-.5 1.3-.2l2.9 1.7c1.2-.9 2.6-1.6 4.1-2l.4-3.3c.1-.5.5-.9 1-.9h4.8c.5 0 .9.4 1 .9l.4 3.3c1.5.4 2.9 1.1 4.1 2l2.9-1.7c.4-.3 1-.2 1.3.2l2.4 4.2c.3.4.2 1-.2 1.3l-2.5 2c.2.7.3 1.5.3 2.3s-.1 1.6-.3 2.3l2.5 2c.4.3.5.9.2 1.3l-2.4 4.2c-.3.4-.9.5-1.3.2l-2.9-1.7c-1.2.9-2.6 1.6-4.1 2l-.4 3.3c-.1.5-.5.9-1 .9h-4.8c-.5 0-.9-.4-1-.9l-.4-3.3c-1.5-.4-2.9-1.1-4.1-2l-2.9 1.7c-.4.3-1 .2-1.3-.2l-2.4-4.2c-.3-.4-.2-1 .2-1.3l2.5-2c-.2-.7-.3-1.5-.3-2.3z"/>
</svg>
