<svg xmlns="http://www.w3.org/2000/svg" clip-rule="evenodd" fill-rule="evenodd" stroke-linejoin="round" stroke-miterlimit="2" viewBox="180 75.81 200 248.39"><path d="m63.49 2.71c11.59-6.04 25.94-1.64 32.04 9.83s1.65 25.66-9.94 31.7l-9.53 5.01c8.21.3 16.04 4.81 20.14 12.52 6.1 11.47 1.66 25.66-9.94 31.7l-50.82 26.7c-11.59 6.04-25.94 1.64-32.04-9.83s-1.65-25.66 9.94-31.7l9.53-5.01c-8.21-.3-16.04-4.81-20.14-12.52-6.1-11.47-1.65-25.66 9.94-31.7zm-27.43 39.82 30.76 18.99-30.76 18.9z" fill="#f40407" transform="matrix(2.02143 0 0 2.02143 180.008 75.8035)"/></svg>